<svg xmlns="http://www.w3.org/2000/svg" viewBox="0 0 24 24">
    <path d="M17.05 20.28c-.98 1.15-2.01 1.15-3.07.52-1.12-.66-2.15-.68-3.34 0-1.52.87-2.37.62-3.35-.52C3.82 15.9 4.6 8.83 8.61 8.35c1.23.06 2.092.63 2.83.65 1.07 0 1.87-.57 3.1-.57 1.87 0 2.99.91 3.65.91.67 0 1.89-.97 3.26-.83.61.03 2.31.25 3.41 1.85-3.03 1.95-2.53 5.36.33 6.65-.3.86-.71 1.71-1.23 2.48-1.23 1.77-2.68 1.77-3.91.79zm-4.89-14.87c1.13-1.36.96-3.27-.39-4.41-.06 1.43-.52 2.76-1.36 3.75-.83.99-2.02 1.76-3.26 1.93.13 1.49.71 2.78 1.65 3.76.94.98 2.2 1.62 3.63 1.68.06-1.43.52-2.76 1.36-3.75.83-.99 2.02-1.76 3.26-1.93-.13-1.49-.71-2.78-1.65-3.76-.94-.98-2.2-1.62-3.63-1.68-.2 1.46-.72 2.81-1.61 3.41z"/>
</svg>